<svg width="143" height="107" viewBox="0 0 143 107" fill="none" xmlns="http://www.w3.org/2000/svg">
<g filter="url(#filter0_d_14_619)">
<path d="M58.8445 7.72498C57.8054 4.83638 56.7567 1.92395 56.7376 1.88581C56.2371 0.765646 55.0788 0.0601777 53.8586 0.184111C53.0864 0.246078 34.8157 1.81908 23.1088 11.2332C16.9884 16.8865 4.76666 49.9386 4.76666 78.5147C4.76666 79.02 4.89536 79.511 5.148 79.9495C13.5898 94.7738 36.6032 98.6539 41.8466 98.8207C41.8799 98.8255 41.9085 98.8255 41.9371 98.8255C42.8619 98.8255 43.7294 98.3822 44.2823 97.6338L49.9547 89.95C40.5834 88.5247 38.8912 86.6657 38.4956 86.375C36.3792 84.8163 34.8157 82.6331 36.7129 79.878C38.1715 77.7378 41.2317 77.0323 43.5769 78.2383C45.9793 79.3584 52.4095 82.962 71.5 82.8667C90.457 82.8095 98.7796 78.8389 98.8988 78.7531C102.083 77.3183 104.566 77.9094 106.116 80.0353C107.96 82.9287 106.645 84.8878 104.538 86.4417C104.142 86.7325 103.184 87.5476 93.1168 89.9309L98.7177 97.6291C99.2658 98.3822 100.138 98.8207 101.063 98.8207C101.096 98.8207 101.125 98.8207 101.153 98.816C106.402 98.6491 129.415 94.7691 137.852 79.9447C138.105 79.5062 138.233 79.0152 138.233 78.51C138.233 49.9386 126.012 16.8865 119.739 11.1093C108.184 1.82385 89.9136 0.250844 89.1414 0.184111C87.9212 0.0792443 86.7629 0.770413 86.2624 1.88581C86.2433 1.92395 85.2232 4.88404 84.2365 7.73928C84.2365 7.73928 76.4621 6.60005 71.5 6.60005C66.5379 6.60005 58.8445 7.72498 58.8445 7.72498ZM52.4333 68.5667C47.1662 68.5667 42.9 62.2127 42.9 54.3668C42.9 46.5209 47.1662 40.1669 52.4333 40.1669C57.7196 39.3804 61.8523 46.5209 61.9667 54.3668C61.9667 62.2127 57.7005 68.5667 52.4333 68.5667ZM90.5667 68.5667C85.2995 68.5667 81.0333 62.1698 81.0333 54.281C81.0333 46.3922 85.2995 39.9953 90.5667 39.9953C95.8338 39.9953 100.1 46.3922 100.1 54.281C100.1 62.1698 95.8338 68.5667 90.5667 68.5667Z" fill="white" fill-opacity="0.1" shape-rendering="crispEdges"/>
</g>
<defs>
<filter id="filter0_d_14_619" x="0.766663" y="0.170044" width="141.467" height="106.656" filterUnits="userSpaceOnUse" color-interpolation-filters="sRGB">
<feFlood flood-opacity="0" result="BackgroundImageFix"/>
<feColorMatrix in="SourceAlpha" type="matrix" values="0 0 0 0 0 0 0 0 0 0 0 0 0 0 0 0 0 0 127 0" result="hardAlpha"/>
<feOffset dy="4"/>
<feGaussianBlur stdDeviation="2"/>
<feComposite in2="hardAlpha" operator="out"/>
<feColorMatrix type="matrix" values="0 0 0 0 0 0 0 0 0 0 0 0 0 0 0 0 0 0 0.25 0"/>
<feBlend mode="normal" in2="BackgroundImageFix" result="effect1_dropShadow_14_619"/>
<feBlend mode="normal" in="SourceGraphic" in2="effect1_dropShadow_14_619" result="shape"/>
</filter>
</defs>
</svg>
