<svg width="195" height="394" viewBox="0 0 195 394" fill="none" xmlns="http://www.w3.org/2000/svg">
<g clip-path="url(#clip0_80_4317)">
<path d="M194.643 96.4964V142.274C194.645 143.631 194.302 144.966 193.645 146.154C192.988 147.342 192.04 148.344 190.89 149.064C189.739 149.785 188.424 150.202 187.068 150.274C185.712 150.347 184.36 150.074 183.139 149.481L152.21 134.514L151.728 134.33V141.764C151.728 147.314 149.522 152.637 145.595 156.562C141.668 160.487 136.341 162.692 130.788 162.692H42.3227C36.769 162.692 31.4427 160.487 27.5156 156.562C23.5886 152.637 21.3824 147.314 21.3824 141.764V124.773H12.0598C8.95603 124.773 5.97939 123.541 3.78469 121.347C1.58999 119.154 0.357025 116.179 0.357025 113.077C0.357025 109.975 1.58999 107 3.78469 104.807C5.97939 102.614 8.95603 101.381 12.0598 101.381H21.3824V100.532C21.3768 97.78 21.9143 95.0541 22.9641 92.5102C24.014 89.9662 25.5555 87.6542 27.5006 85.7063C29.4456 83.7585 31.756 82.2132 34.2993 81.1588C36.8427 80.1045 39.5692 79.5618 42.3227 79.5618H130.788C133.541 79.5618 136.268 80.1045 138.811 81.1588C141.354 82.2132 143.665 83.7585 145.61 85.7063C147.555 87.6542 149.096 89.9662 150.146 92.5102C151.196 95.0541 151.734 97.78 151.728 100.532V104.497L152.21 104.312L183.124 89.3034C184.345 88.7075 185.698 88.4318 187.054 88.5024C188.411 88.573 189.728 88.9876 190.88 89.7071C192.032 90.4267 192.982 91.4274 193.64 92.6152C194.299 93.8029 194.644 95.1386 194.643 96.4964Z" fill="black"/>
<path d="M116.308 80.2273C138.476 80.2273 156.446 62.2678 156.446 40.1136C156.446 17.9595 138.476 0 116.308 0C94.1404 0 76.17 17.9595 76.17 40.1136C76.17 62.2678 94.1404 80.2273 116.308 80.2273Z" fill="black"/>
<path d="M35.0686 81.9688C54.2159 81.9688 69.7378 66.4563 69.7378 47.3207C69.7378 28.1851 54.2159 12.6726 35.0686 12.6726C15.9214 12.6726 0.399506 28.1851 0.399506 47.3207C0.399506 66.4563 15.9214 81.9688 35.0686 81.9688Z" fill="black"/>
<path d="M175.7 382.163L100.695 176.257H109.196C111.262 176.257 113.244 175.436 114.706 173.976C116.167 172.515 116.988 170.534 116.988 168.469C116.988 166.403 116.167 164.423 114.706 162.962C113.244 161.502 111.262 160.681 109.196 160.681H70.262C68.1953 160.681 66.2133 161.502 64.7519 162.962C63.2906 164.423 62.4696 166.403 62.4696 168.469C62.4696 170.534 63.2906 172.515 64.7519 173.976C66.2133 175.436 68.1953 176.257 70.262 176.257H79.4854L4.49406 382.163C4.13084 383.127 3.9631 384.154 4.0006 385.184C4.03811 386.214 4.28011 387.226 4.71253 388.161C5.14496 389.097 5.75917 389.937 6.51946 390.633C7.27974 391.329 8.17093 391.867 9.14117 392.216C9.99351 392.533 10.8954 392.696 11.8048 392.697C13.4045 392.698 14.9656 392.206 16.2761 391.289C17.5865 390.372 18.5828 389.074 19.1296 387.572L82.3048 214.02V386.212C82.3048 388.278 83.1258 390.259 84.5871 391.719C86.0485 393.18 88.0305 394 90.0972 394C92.1639 394 94.1459 393.18 95.6073 391.719C97.0686 390.259 97.8896 388.278 97.8896 386.212V214.062L161.051 387.501C161.597 389.003 162.594 390.301 163.904 391.218C165.215 392.135 166.776 392.627 168.375 392.627C169.285 392.625 170.187 392.462 171.039 392.145C172.98 391.436 174.56 389.988 175.434 388.117C176.307 386.245 176.403 384.104 175.7 382.163Z" fill="black"/>
<path d="M80.1088 106.649H53.5154C50.8706 106.649 48.7266 108.791 48.7266 111.435V115.682C48.7266 118.326 50.8706 120.468 53.5154 120.468H80.1088C82.7536 120.468 84.8976 118.326 84.8976 115.682V111.435C84.8976 108.791 82.7536 106.649 80.1088 106.649Z" fill="black"/>
<path d="M115.77 28.956H115.557C114.999 28.9288 114.451 28.7917 113.946 28.5527C113.441 28.3137 112.987 27.9774 112.612 27.5631C112.237 27.1488 111.948 26.6646 111.76 26.1383C111.572 25.6119 111.491 25.0538 111.519 24.4958L112.058 13.9612C112.114 12.8346 112.616 11.7765 113.453 11.0197C114.29 10.2629 115.393 9.86939 116.521 9.92572C117.648 9.98205 118.707 10.4836 119.464 11.3201C120.221 12.1565 120.615 13.2593 120.558 14.3859L120.034 24.9205C119.98 26.0124 119.506 27.0411 118.711 27.7927C117.917 28.5443 116.863 28.961 115.77 28.956Z" fill="black"/>
<path d="M102.494 39.3065C102.117 39.3082 101.74 39.2606 101.375 39.1649L90.4939 36.2056C89.9553 36.0587 89.4509 35.8072 89.0095 35.4655C88.5681 35.1238 88.1984 34.6985 87.9214 34.214C87.6445 33.7295 87.4658 33.1952 87.3954 32.6417C87.3251 32.0881 87.3646 31.5262 87.5115 30.9879C87.6585 30.4496 87.9102 29.9455 88.2521 29.5043C88.594 29.0632 89.0195 28.6937 89.5043 28.417C89.9891 28.1402 90.5238 27.9616 91.0776 27.8913C91.6315 27.821 92.1938 27.8604 92.7325 28.0073L103.599 30.9666C104.586 31.2413 105.441 31.863 106.006 32.7174C106.571 33.5718 106.808 34.6013 106.673 35.6165C106.539 36.6317 106.042 37.5641 105.274 38.2421C104.506 38.9201 103.519 39.2981 102.494 39.3065Z" fill="black"/>
<path d="M101.035 65.3599C100.058 65.356 99.1125 65.016 98.3571 64.3971C97.4837 63.6853 96.9288 62.656 96.8146 61.5355C96.7003 60.415 97.036 59.295 97.7479 58.4218L104.832 49.7279C105.184 49.2947 105.617 48.9349 106.108 48.6691C106.599 48.4033 107.137 48.2368 107.692 48.1789C108.247 48.1211 108.809 48.1731 109.344 48.3319C109.879 48.4908 110.377 48.7535 110.811 49.1049C111.244 49.4564 111.604 49.8897 111.87 50.3802C112.136 50.8706 112.303 51.4087 112.361 51.9635C112.419 52.5184 112.367 53.0792 112.208 53.614C112.049 54.1487 111.786 54.647 111.434 55.0802L104.35 63.7882C103.95 64.2811 103.445 64.6781 102.871 64.9501C102.297 65.222 101.67 65.3621 101.035 65.3599Z" fill="black"/>
<path d="M131.567 65.36C130.934 65.36 130.31 65.2189 129.739 64.947C129.168 64.6751 128.664 64.2792 128.266 63.7883L121.182 55.0802C120.472 54.2052 120.138 53.0841 120.255 51.9635C120.372 50.843 120.93 49.8147 121.805 49.1049C122.681 48.3952 123.803 48.0621 124.924 48.1789C126.045 48.2958 127.074 48.853 127.784 49.728L134.868 58.4218C135.58 59.295 135.916 60.415 135.801 61.5355C135.687 62.6561 135.132 63.6854 134.259 64.3971C133.5 65.0191 132.549 65.3593 131.567 65.36Z" fill="black"/>
<path d="M130.207 40.2835C129.21 40.2758 128.248 39.9182 127.488 39.2732C126.728 38.6282 126.22 37.7369 126.051 36.7551C125.882 35.7733 126.064 34.7634 126.565 33.902C127.065 33.0406 127.853 32.3825 128.79 32.0427L139.572 28.1064C140.632 27.7196 141.802 27.7693 142.824 28.2446C143.847 28.72 144.64 29.5819 145.027 30.6409C145.414 31.6999 145.364 32.8692 144.888 33.8915C144.413 34.9139 143.55 35.7055 142.49 36.0923L131.709 40.0286C131.227 40.2004 130.718 40.2866 130.207 40.2835Z" fill="black"/>
<path d="M39.5032 37.834C38.8218 37.8366 38.1498 37.6755 37.5438 37.3642C36.9378 37.0529 36.4155 36.6006 36.0211 36.0454C35.6266 35.4901 35.3715 34.8483 35.2773 34.1738C35.183 33.4994 35.2524 32.8123 35.4795 32.1702L38.7806 22.6551C38.9667 22.128 39.2548 21.6426 39.6286 21.2267C40.0023 20.8109 40.4544 20.4726 40.9589 20.2314C41.4634 19.9901 42.0106 19.8505 42.5691 19.8206C43.1276 19.7906 43.6866 19.8709 44.2141 20.0569C44.7415 20.2428 45.2272 20.5308 45.6433 20.9043C46.0594 21.2778 46.3979 21.7296 46.6393 22.2338C46.8807 22.738 47.0204 23.2849 47.0503 23.843C47.0803 24.4012 47 24.9598 46.8139 25.487L43.5127 34.9738C43.2244 35.8076 42.6834 36.5311 41.9649 37.0436C41.2463 37.5562 40.386 37.8324 39.5032 37.834Z" fill="black"/>
<path d="M23.5217 42.7614C22.5972 42.7644 21.6969 42.4662 20.9573 41.9118L12.2581 35.3985C11.3507 34.7225 10.7491 33.714 10.5857 32.5947C10.4222 31.4755 10.7104 30.3372 11.3868 29.4303C12.0632 28.5234 13.0723 27.9221 14.1922 27.7588C15.3122 27.5955 16.4512 27.8835 17.3586 28.5595L26.0719 35.1294C26.7807 35.6668 27.3029 36.413 27.5649 37.2627C27.8268 38.1124 27.8154 39.0229 27.5322 39.8658C27.249 40.7087 26.7083 41.4415 25.9862 41.961C25.2642 42.4804 24.3972 42.7604 23.5075 42.7614H23.5217Z" fill="black"/>
<path d="M13.7033 65.2324C13.0289 65.2239 12.3662 65.055 11.77 64.7399C11.1738 64.4247 10.6612 63.9723 10.2746 63.42C9.95429 62.9627 9.72731 62.4468 9.60663 61.9017C9.48596 61.3567 9.47396 60.7932 9.57134 60.2435C9.66871 59.6938 9.87353 59.1687 10.1741 58.6982C10.4747 58.2277 10.8651 57.821 11.323 57.5014L20.1922 51.2995C21.1174 50.693 22.2428 50.4709 23.3293 50.6805C24.4157 50.8901 25.3775 51.5149 26.0103 52.4221C26.6431 53.3292 26.897 54.4472 26.718 55.5385C26.539 56.6297 25.9413 57.6082 25.0519 58.266L16.1685 64.4678C15.4459 64.9719 14.5845 65.2391 13.7033 65.2324Z" fill="black"/>
<path d="M40.9908 75.2715C40.0736 75.2685 39.182 74.969 38.4491 74.4177C37.7162 73.8665 37.1814 73.0931 36.9246 72.2131L33.4535 60.8856C33.1247 59.8078 33.2378 58.6436 33.7678 57.6492C34.2979 56.6547 35.2016 55.9115 36.28 55.5829C37.3584 55.2543 38.5233 55.3673 39.5183 55.897C40.5134 56.4268 41.2571 57.3299 41.5859 58.4077L45.0571 69.7352C45.3836 70.813 45.2685 71.9762 44.7372 72.9692C44.2058 73.9623 43.3017 74.7038 42.2235 75.0308C41.8273 75.1735 41.4116 75.2547 40.9908 75.2715Z" fill="black"/>
<path d="M58.9701 52.3899L48.2874 52.1917C47.1601 52.1917 46.079 51.7442 45.2819 50.9475C44.4848 50.1509 44.037 49.0705 44.037 47.9439C44.037 46.8173 44.4848 45.7368 45.2819 44.9402C46.079 44.1436 47.1601 43.696 48.2874 43.696H48.3724L59.0551 43.8943C60.1824 43.9055 61.259 44.3639 62.0481 45.1685C62.8373 45.9731 63.2743 47.058 63.263 48.1846C63.2517 49.3112 62.7931 50.3871 61.988 51.1758C61.1829 51.9645 60.0974 52.4012 58.9701 52.3899Z" fill="black"/>
</g>
<defs>
<clipPath id="clip0_80_4317">
<rect width="195" height="394" fill="white"/>
</clipPath>
</defs>
</svg>
